<svg id="Layer_1" data-name="Layer 1" xmlns="http://www.w3.org/2000/svg" viewBox="0 0 500 500"><title>The Cats</title><path d="M180.15,191.68s-9.56-3.64-12.29-5.91-2.27-4.1-2.27-4.1l2.27-5,.46-4.55,2.73-6.83,3.18-5.91s7.74-11.83,10-15.93,4.55-12.74,4.55-12.74v-2.27s-8.19-.46-13.65,3.18S162,137.08,162,137.08s-5.46,1.37-9.1.46-13.65-5.46-13.65-5.46-15.93-7.74-18.2-8.19-5.46-1.37-5.46-1.37-2.73-12.74-4.55-15.92-6.37-17.3-10-16.38S94.15,96.13,93.24,103a166.49,166.49,0,0,1-4.09,20c-.91,2.73-4.1,8.19-4.56,10.46s-2.73,5.46-2.73,5.46l-8.19,8.19v8.19l-1.36,1.82,1.82,2.28-1.82,1.36L75,162.11l-1.37.91.91.91-2.27,2.27L75,173.48s0,5,1.36,8.19S79.59,199,81,205.33s.46,27.76-1.82,37.31.46,19.11.46,19.11,1.36,16.39,8.65,27.31,10.92,24.57,5.91,30-26.85,23.66-32.31,30-22.29,23.2-22.29,23.2S28.63,384.15,25.9,388.25s-3.64,4.09-2.28,5.46-3.18,5.91-2.27,8.64,1.82,4.1,5,4.55a26.24,26.24,0,0,1,5.46,1.37s7.28-.91,10.47-3.19,8.19-8.19,8.19-8.19l3.18-5a19.43,19.43,0,0,1,3.19-3.19c1.36-.91,5-8.64,5-8.64s0,1.82,2.73.91,5-8.19,10.92-10.47,27.76-12.28,27.76-12.28,26.85-11.38,30.94-14.11,11.38-10.92,11.38-10.92,2.73-1.36,5,1.82,5.92,11.83,5.92,11.83,2.73,12.29,4.09,19.57,7.74,27.75,3.19,38.22-4.1,17.29-9.1,16.83-10.92-1.82-16.38,5-5.92,11.37-2.73,11.83a13.08,13.08,0,0,1,5,1.36c2.28.91,7.28,0,7.28,0s2.73,0,9.56.46,10.92-1.82,10.92-1.82l6.82-7.28a70.51,70.51,0,0,1,5.46-8.65c2.28-2.73,4.1-5,5.92-11.83s2.27-18.65,2.27-18.65l13.65-63.25s1.82-9.55,8.65-10.92,40-5,48.23.91,11.38,3.19,17.29,13.2,5,13.19,8.19,21.38.91,12.29,5,15.47,5.46,5,6.82,8.65,6.83,15.47-6.82,21.84-24.57,15-30,13.65-18.65.91-18.2,6.82,2.28,11.83,8.19,10.47c5,.91,15.48,3.64,23.67.91s23.2-9.1,39.58-18.2,24.12-15,24.57-18.2-2.27-4.1-1.82-7.28,2.73-17.29,4.55-25.48,0-18.2,0-21.84,24.12,14.1,36.86,19.11,61.42,17.29,67.34,20.93,6.37,4.55,8.19,12.28,5,29.12,1.82,28.21-15,.91-15.47,7.74.91,14.56,5.46,12.74,6.83.45,6.83.45H465s5,1.37,8.19-6.82,6.37-17.75,5.46-26.39,0-41.41,0-41.41,2.27-13.65-4.55-15.92-29.58-21.39-40-35-10.92-16.38-10.46-29.12-2.73-25.48-5.92-31.85-5.46-17.29-.45-23.21,29.58-19.56,37.77-35,5-11.38,5-11.38l2.28-10,2.27-6.37.46-4.55-2.28,3.19,2.28-8.65,1.36-5.91.46-4.55s4.09-21.84,2.73-28.21a47.29,47.29,0,0,0-4.1-11.38l1.37,6.83s-1.82-5-3.64-12.29-8.65-16.84-8.65-16.84l-9.34-11.21-2-2.44s-6.37-6.82-10.46-9.1-10-5-10-5l.91,1.82s-3.64-3.19-11.38-4.1A72.94,72.94,0,0,0,399,56.35c-1.41.1-2.25.19-2.25.19s-10,.46-14.1,1.82A30.82,30.82,0,0,0,375.35,62a31,31,0,0,1-5,3.64c-3.64,2.28-8.19,4.55-8.19,4.55L356,76.34l-1.14,1.13V82s-2.27-.45.46,2.28,3.64,6.83,7.73,5,3.19-1.36,10-3.64,21.39-9.55,37.31,0S440,106.14,439.05,133s-.46,56-40,81c-11.83,4.09-28.21-.46-35.49-4.55s-68.71-28.67-99.2-32.76-42.31.45-50.5,2.73S192.89,191.23,180.15,191.68Z"/></svg>